<svg width="989" height="242" viewBox="0 0 989 242" fill="none" xmlns="http://www.w3.org/2000/svg">
<g clip-path="url(#clip0_1704_2361)">
<path d="M256.408 201.392V175.896H205.476C187.062 175.896 166.635 157.507 161.589 148.743C146.29 177.426 126.529 175.896 114.578 175.896C73.1433 177.171 61.7226 144.026 61.1915 127.294C62.4663 85.2257 95.1884 75.2396 111.39 75.505C150.274 75.505 161.057 107.907 161.589 124.107H187.84C184.015 65.4661 137.95 50.8059 114.578 50.8059C55.2951 52.7181 35.6503 100.205 36.4471 127.294C41.5065 187.847 89.0364 202.985 114.578 202.985C135.251 203.782 153.621 190.237 161.589 183.067C175.931 196.611 198.773 201.126 210.193 201.392H256.408Z" fill="#FAFAFA"/>
<path d="M256.408 240.322V214.825H203.776C181.719 213.25 165.724 202.397 161.589 199.087C151.23 209.445 140.032 215.163 119.315 216.419C61.1915 219.941 23.6778 174.302 23.6778 125.589C23.6778 63.3886 84.2554 34.7196 116.925 36.353C180.669 39.5399 201.365 96.8519 202.162 124.107H228.456C221.285 34.0732 148 11.1677 108.16 12.4504C22.1049 21.2137 -0.205557 90.5311 0.590816 125.589C1.38806 215.621 73.1007 245.102 119.315 240.322C130.47 239.167 146.407 238.281 161.589 225.533C174.274 237.485 197.937 239.908 215.728 240.322H256.408Z" fill="#FAFAFA"/>
<path d="M256.408 201.392V175.896H205.476C187.062 175.896 166.635 157.507 161.589 148.743C146.29 177.426 126.529 175.896 114.578 175.896C73.1433 177.171 61.7226 144.026 61.1915 127.294C62.4663 85.2257 95.1884 75.2396 111.39 75.505C150.274 75.505 161.057 107.907 161.589 124.107H187.84C184.015 65.4661 137.95 50.8059 114.578 50.8059C55.2951 52.7181 35.6503 100.205 36.4471 127.294C41.5065 187.847 89.0364 202.985 114.578 202.985C135.251 203.782 153.621 190.237 161.589 183.067C175.931 196.611 198.773 201.126 210.194 201.392H256.408Z" stroke="#FAFAFA" stroke-width="0.392572"/>
<path d="M256.408 240.322V214.825H203.776C181.719 213.25 165.724 202.397 161.589 199.087C151.23 209.445 140.032 215.163 119.315 216.419C61.1915 219.941 23.6778 174.302 23.6778 125.589C23.6778 63.3886 84.2554 34.7196 116.925 36.353C180.669 39.5399 201.365 96.8519 202.162 124.107H228.456C221.285 34.0732 148 11.1677 108.16 12.4504C22.1049 21.2137 -0.205557 90.5311 0.590816 125.589C1.38806 215.621 73.1007 245.102 119.315 240.322C130.47 239.167 146.407 238.281 161.589 225.533C174.274 237.485 197.937 239.908 215.728 240.322H256.408Z" stroke="#FAFAFA" stroke-width="0.392572"/>
</g>
<path d="M334.32 89.6924L326.064 68.4764H298.896L290.736 89.6924H282L308.784 20.8604H316.56L343.248 89.6924H334.32ZM315.792 40.0604C315.6 39.5484 315.28 38.6204 314.832 37.2764C314.384 35.9324 313.936 34.5564 313.488 33.1484C313.104 31.6764 312.784 30.5564 312.528 29.7884C312.208 31.0684 311.856 32.3804 311.472 33.7244C311.152 35.0044 310.8 36.1884 310.416 37.2764C310.096 38.3644 309.808 39.2924 309.552 40.0604L301.776 60.7964H323.472L315.792 40.0604ZM440.081 89.6924H429.713L398.705 54.9404V89.6924H390.065V21.1484H398.705V54.3644L428.945 21.1484H438.737L408.977 54.4604L440.081 89.6924ZM514.349 27.7724C510.701 27.7724 507.405 28.4124 504.461 29.6924C501.517 30.9084 499.021 32.7324 496.973 35.1644C494.925 37.5324 493.357 40.4444 492.269 43.9004C491.181 47.2924 490.637 51.1324 490.637 55.4204C490.637 61.0524 491.501 65.9484 493.229 70.1084C495.021 74.2684 497.645 77.4684 501.101 79.7084C504.621 81.9484 509.005 83.0684 514.253 83.0684C517.261 83.0684 520.109 82.8124 522.797 82.3004C525.485 81.7884 528.109 81.1484 530.669 80.3804V87.8684C528.109 88.8284 525.453 89.5324 522.701 89.9804C520.013 90.4284 516.781 90.6524 513.005 90.6524C506.029 90.6524 500.205 89.2124 495.533 86.3324C490.861 83.4524 487.341 79.3564 484.973 74.0444C482.669 68.7324 481.517 62.4924 481.517 55.3244C481.517 50.1404 482.221 45.4044 483.629 41.1164C485.101 36.8284 487.213 33.1164 489.965 29.9804C492.781 26.8444 496.237 24.4444 500.333 22.7804C504.429 21.0524 509.133 20.1884 514.445 20.1884C517.965 20.1884 521.357 20.5404 524.621 21.2444C527.885 21.9484 530.797 22.9404 533.357 24.2204L529.901 31.5164C527.789 30.5564 525.421 29.6924 522.797 28.9244C520.237 28.1564 517.421 27.7724 514.349 27.7724ZM583.166 21.1484H591.23V58.7804C591.23 60.3804 591.198 62.1404 591.134 64.0604C591.134 65.9164 591.102 67.7724 591.038 69.6284C590.974 71.4844 590.878 73.1484 590.75 74.6204C590.686 76.0284 590.622 77.1164 590.558 77.8844H590.942L628.67 21.1484H638.27V89.6924H630.206V52.4444C630.206 50.7164 630.238 48.8604 630.302 46.8764C630.366 44.8284 630.43 42.8764 630.494 41.0204C630.622 39.1004 630.718 37.4044 630.782 35.9324C630.846 34.4604 630.91 33.3724 630.974 32.6684H630.59L592.766 89.6924H583.166V21.1484ZM754.005 55.3244C754.005 60.6364 753.333 65.4684 751.989 69.8204C750.645 74.1084 748.629 77.8204 745.941 80.9564C743.317 84.0924 740.021 86.4924 736.053 88.1564C732.149 89.8204 727.605 90.6524 722.421 90.6524C717.045 90.6524 712.373 89.8204 708.405 88.1564C704.437 86.4284 701.141 84.0284 698.517 80.9564C695.893 77.8204 693.941 74.0764 692.661 69.7244C691.381 65.3724 690.741 60.5404 690.741 55.2284C690.741 48.1884 691.893 42.0444 694.197 36.7964C696.501 31.5484 699.989 27.4524 704.661 24.5084C709.397 21.5644 715.349 20.0924 722.517 20.0924C729.365 20.0924 735.125 21.5644 739.797 24.5084C744.469 27.3884 747.989 31.4844 750.357 36.7964C752.789 42.0444 754.005 48.2204 754.005 55.3244ZM699.861 55.3244C699.861 61.0844 700.661 66.0444 702.261 70.2044C703.861 74.3644 706.325 77.5644 709.653 79.8044C713.045 82.0444 717.301 83.1644 722.421 83.1644C727.605 83.1644 731.829 82.0444 735.093 79.8044C738.421 77.5644 740.885 74.3644 742.485 70.2044C744.085 66.0444 744.885 61.0844 744.885 55.3244C744.885 46.6844 743.093 39.9324 739.509 35.0684C735.925 30.1404 730.261 27.6764 722.517 27.6764C717.333 27.6764 713.045 28.7964 709.653 31.0364C706.325 33.2124 703.861 36.3804 702.261 40.5404C700.661 44.6364 699.861 49.5644 699.861 55.3244ZM836.877 89.6924L814.317 29.5964H813.933C814.061 30.8764 814.157 32.5084 814.221 34.4924C814.349 36.4764 814.445 38.6524 814.509 41.0204C814.573 43.3244 814.605 45.6924 814.605 48.1244V89.6924H806.637V21.1484H819.405L840.525 77.3084H840.909L862.413 21.1484H875.085V89.6924H866.541V47.5484C866.541 45.3084 866.573 43.1004 866.637 40.9244C866.701 38.6844 866.797 36.6044 866.925 34.6844C867.053 32.7004 867.149 31.0364 867.213 29.6924H866.829L843.981 89.6924H836.877ZM974.179 89.6924L965.923 68.4764H938.755L930.595 89.6924H921.859L948.643 20.8604H956.419L983.107 89.6924H974.179ZM955.651 40.0604C955.459 39.5484 955.139 38.6204 954.691 37.2764C954.243 35.9324 953.795 34.5564 953.347 33.1484C952.963 31.6764 952.643 30.5564 952.387 29.7884C952.067 31.0684 951.715 32.3804 951.331 33.7244C951.011 35.0044 950.659 36.1884 950.275 37.2764C949.955 38.3644 949.667 39.2924 949.411 40.0604L941.635 60.7964H963.331L955.651 40.0604Z" fill="#FAFAFA"/>
<path d="M303.8 150.692L300.36 141.852H289.04L285.64 150.692H282L293.16 122.012H296.4L307.52 150.692H303.8ZM296.08 130.012C296 129.799 295.867 129.412 295.68 128.852C295.493 128.292 295.307 127.719 295.12 127.132C294.96 126.519 294.827 126.052 294.72 125.732C294.587 126.266 294.44 126.812 294.28 127.372C294.147 127.906 294 128.399 293.84 128.852C293.707 129.306 293.587 129.692 293.48 130.012L290.24 138.652H299.28L296.08 130.012ZM327.187 122.132C329.56 122.132 331.547 122.359 333.147 122.812C334.774 123.266 335.987 124.012 336.787 125.052C337.614 126.092 338.027 127.479 338.027 129.212C338.027 130.332 337.814 131.332 337.387 132.212C336.987 133.066 336.374 133.786 335.547 134.372C334.747 134.932 333.76 135.319 332.587 135.532V135.732C333.787 135.919 334.867 136.266 335.827 136.772C336.814 137.279 337.587 137.999 338.147 138.932C338.707 139.866 338.987 141.079 338.987 142.572C338.987 144.306 338.587 145.786 337.787 147.012C336.987 148.212 335.84 149.132 334.347 149.772C332.88 150.386 331.12 150.692 329.067 150.692H319.027V122.132H327.187ZM327.907 134.292C330.36 134.292 332.04 133.906 332.947 133.132C333.854 132.332 334.307 131.159 334.307 129.612C334.307 128.039 333.747 126.919 332.627 126.252C331.534 125.559 329.774 125.212 327.347 125.212H322.627V134.292H327.907ZM322.627 137.292V147.652H328.387C330.92 147.652 332.68 147.159 333.667 146.172C334.654 145.186 335.147 143.892 335.147 142.292C335.147 141.279 334.92 140.399 334.467 139.652C334.04 138.906 333.307 138.332 332.267 137.932C331.254 137.506 329.867 137.292 328.107 137.292H322.627ZM361.682 150.692H358.082V125.292H349.162V122.132H370.562V125.292H361.682V150.692ZM406.608 136.372C406.608 138.586 406.328 140.599 405.768 142.412C405.208 144.199 404.368 145.746 403.248 147.052C402.154 148.359 400.781 149.359 399.128 150.052C397.501 150.746 395.608 151.092 393.448 151.092C391.208 151.092 389.261 150.746 387.608 150.052C385.954 149.332 384.581 148.332 383.488 147.052C382.394 145.746 381.581 144.186 381.048 142.372C380.514 140.559 380.248 138.546 380.248 136.332C380.248 133.399 380.728 130.839 381.688 128.652C382.648 126.466 384.101 124.759 386.048 123.532C388.021 122.306 390.501 121.692 393.488 121.692C396.341 121.692 398.741 122.306 400.688 123.532C402.634 124.732 404.101 126.439 405.088 128.652C406.101 130.839 406.608 133.412 406.608 136.372ZM384.048 136.372C384.048 138.772 384.381 140.839 385.048 142.572C385.714 144.306 386.741 145.639 388.128 146.572C389.541 147.506 391.314 147.972 393.448 147.972C395.608 147.972 397.368 147.506 398.728 146.572C400.114 145.639 401.141 144.306 401.808 142.572C402.474 140.839 402.808 138.772 402.808 136.372C402.808 132.772 402.061 129.959 400.568 127.932C399.074 125.879 396.714 124.852 393.488 124.852C391.328 124.852 389.541 125.319 388.128 126.252C386.741 127.159 385.714 128.479 385.048 130.212C384.381 131.919 384.048 133.972 384.048 136.372ZM433.138 150.692L423.738 125.652H423.578C423.631 126.186 423.671 126.866 423.698 127.692C423.751 128.519 423.791 129.426 423.818 130.412C423.844 131.372 423.858 132.359 423.858 133.372V150.692H420.538V122.132H425.858L434.658 145.532H434.818L443.778 122.132H449.058V150.692H445.498V133.132C445.498 132.199 445.511 131.279 445.538 130.372C445.564 129.439 445.604 128.572 445.658 127.772C445.711 126.946 445.751 126.252 445.778 125.692H445.618L436.098 150.692H433.138ZM482.347 150.692L478.907 141.852H467.587L464.187 150.692H460.547L471.707 122.012H474.947L486.067 150.692H482.347ZM474.627 130.012C474.547 129.799 474.414 129.412 474.227 128.852C474.04 128.292 473.854 127.719 473.667 127.132C473.507 126.519 473.374 126.052 473.267 125.732C473.134 126.266 472.987 126.812 472.827 127.372C472.694 127.906 472.547 128.399 472.387 128.852C472.254 129.306 472.134 129.692 472.027 130.012L468.787 138.652H477.827L474.627 130.012ZM503.801 150.692H500.201V125.292H491.281V122.132H512.681V125.292H503.801V150.692ZM524.628 122.132H527.988V137.812C527.988 138.479 527.974 139.212 527.948 140.012C527.948 140.786 527.934 141.559 527.908 142.332C527.881 143.106 527.841 143.799 527.788 144.412C527.761 144.999 527.734 145.452 527.708 145.772H527.868L543.588 122.132H547.588V150.692H544.228V135.172C544.228 134.452 544.241 133.679 544.268 132.852C544.294 131.999 544.321 131.186 544.348 130.412C544.401 129.612 544.441 128.906 544.468 128.292C544.494 127.679 544.521 127.226 544.548 126.932H544.388L528.628 150.692H524.628V122.132ZM579.771 128.812C579.771 130.759 579.158 132.306 577.931 133.452C576.704 134.572 575.064 135.292 573.011 135.612V135.772C575.411 136.092 577.238 136.839 578.491 138.012C579.744 139.186 580.371 140.719 580.371 142.612C580.371 144.292 579.944 145.772 579.091 147.052C578.238 148.306 576.958 149.292 575.251 150.012C573.544 150.732 571.411 151.092 568.851 151.092C567.304 151.092 565.824 150.972 564.411 150.732C563.024 150.519 561.731 150.119 560.531 149.532V146.252C561.358 146.652 562.238 146.999 563.171 147.292C564.131 147.559 565.091 147.772 566.051 147.932C567.011 148.066 567.931 148.132 568.811 148.132C571.371 148.132 573.304 147.652 574.611 146.692C575.944 145.732 576.611 144.372 576.611 142.612C576.611 140.799 575.838 139.479 574.291 138.652C572.744 137.826 570.584 137.412 567.811 137.412H563.731V134.412H567.611C569.504 134.412 571.064 134.199 572.291 133.772C573.544 133.346 574.478 132.746 575.091 131.972C575.731 131.172 576.051 130.239 576.051 129.172C576.051 127.732 575.518 126.626 574.451 125.852C573.384 125.079 571.998 124.692 570.291 124.692C568.504 124.692 567.011 124.919 565.811 125.372C564.638 125.826 563.491 126.412 562.371 127.132L560.651 124.692C561.398 124.132 562.251 123.639 563.211 123.212C564.198 122.759 565.291 122.399 566.491 122.132C567.691 121.866 568.971 121.732 570.331 121.732C572.384 121.732 574.104 122.039 575.491 122.652C576.904 123.266 577.971 124.106 578.691 125.172C579.411 126.212 579.771 127.426 579.771 128.812ZM611.927 150.692L608.487 141.852H597.167L593.767 150.692H590.127L601.287 122.012H604.527L615.647 150.692H611.927ZM604.207 130.012C604.127 129.799 603.993 129.412 603.807 128.852C603.62 128.292 603.433 127.719 603.247 127.132C603.087 126.519 602.953 126.052 602.847 125.732C602.713 126.266 602.567 126.812 602.407 127.372C602.273 127.906 602.127 128.399 601.967 128.852C601.833 129.306 601.713 129.692 601.607 130.012L598.367 138.652H607.407L604.207 130.012ZM652.073 147.532V158.212H648.633V150.692H627.153V122.132H630.753V147.492H645.033V122.132H648.593V147.532H652.073ZM664.442 122.132H667.802V137.812C667.802 138.479 667.789 139.212 667.762 140.012C667.762 140.786 667.749 141.559 667.722 142.332C667.695 143.106 667.655 143.799 667.602 144.412C667.575 144.999 667.549 145.452 667.522 145.772H667.682L683.402 122.132H687.402V150.692H684.042V135.172C684.042 134.452 684.055 133.679 684.082 132.852C684.109 131.999 684.135 131.186 684.162 130.412C684.215 129.612 684.255 128.906 684.282 128.292C684.309 127.679 684.335 127.226 684.362 126.932H684.202L668.442 150.692H664.442V122.132ZM711.305 138.852L703.905 150.692H699.705L707.705 138.212C706.692 137.866 705.732 137.386 704.825 136.772C703.945 136.159 703.225 135.319 702.665 134.252C702.105 133.186 701.825 131.812 701.825 130.132C701.825 127.546 702.718 125.572 704.505 124.212C706.292 122.826 708.958 122.132 712.505 122.132H720.505V150.692H716.905V138.852H711.305ZM712.585 125.212C711.065 125.212 709.785 125.386 708.745 125.732C707.705 126.079 706.905 126.626 706.345 127.372C705.812 128.119 705.545 129.092 705.545 130.292C705.545 132.052 706.132 133.412 707.305 134.372C708.478 135.332 710.292 135.812 712.745 135.812H716.905V125.212H712.585ZM755.405 150.692V122.132H772.365V125.292H759.005V134.212H763.245C766.098 134.212 768.312 134.572 769.885 135.292C771.458 135.986 772.552 136.946 773.165 138.172C773.778 139.372 774.085 140.759 774.085 142.332C774.085 144.066 773.738 145.559 773.045 146.812C772.378 148.066 771.285 149.026 769.765 149.692C768.245 150.359 766.245 150.692 763.765 150.692H755.405ZM763.405 147.612C765.965 147.612 767.765 147.186 768.805 146.332C769.845 145.452 770.365 144.119 770.365 142.332C770.365 141.106 770.112 140.132 769.605 139.412C769.125 138.666 768.325 138.132 767.205 137.812C766.112 137.492 764.645 137.332 762.805 137.332H759.005V147.612H763.405ZM787.654 122.132H791.014V137.812C791.014 138.479 791.001 139.212 790.974 140.012C790.974 140.786 790.961 141.559 790.934 142.332C790.908 143.106 790.868 143.799 790.814 144.412C790.788 144.999 790.761 145.452 790.734 145.772H790.894L806.614 122.132H810.614V150.692H807.254V135.172C807.254 134.452 807.268 133.679 807.294 132.852C807.321 131.999 807.348 131.186 807.374 130.412C807.428 129.612 807.468 128.906 807.494 128.292C807.521 127.679 807.548 127.226 807.574 126.932H807.414L791.654 150.692H787.654V122.132ZM842.797 128.812C842.797 130.759 842.184 132.306 840.957 133.452C839.731 134.572 838.091 135.292 836.037 135.612V135.772C838.437 136.092 840.264 136.839 841.517 138.012C842.771 139.186 843.397 140.719 843.397 142.612C843.397 144.292 842.971 145.772 842.117 147.052C841.264 148.306 839.984 149.292 838.277 150.012C836.571 150.732 834.437 151.092 831.877 151.092C830.331 151.092 828.851 150.972 827.437 150.732C826.051 150.519 824.757 150.119 823.557 149.532V146.252C824.384 146.652 825.264 146.999 826.197 147.292C827.157 147.559 828.117 147.772 829.077 147.932C830.037 148.066 830.957 148.132 831.837 148.132C834.397 148.132 836.331 147.652 837.637 146.692C838.971 145.732 839.637 144.372 839.637 142.612C839.637 140.799 838.864 139.479 837.317 138.652C835.771 137.826 833.611 137.412 830.837 137.412H826.757V134.412H830.637C832.531 134.412 834.091 134.199 835.317 133.772C836.571 133.346 837.504 132.746 838.117 131.972C838.757 131.172 839.077 130.239 839.077 129.172C839.077 127.732 838.544 126.626 837.477 125.852C836.411 125.079 835.024 124.692 833.317 124.692C831.531 124.692 830.037 124.919 828.837 125.372C827.664 125.826 826.517 126.412 825.397 127.132L823.677 124.692C824.424 124.132 825.277 123.639 826.237 123.212C827.224 122.759 828.317 122.399 829.517 122.132C830.717 121.866 831.997 121.732 833.357 121.732C835.411 121.732 837.131 122.039 838.517 122.652C839.931 123.266 840.997 124.106 841.717 125.172C842.437 126.212 842.797 127.426 842.797 128.812ZM878.873 150.692H875.273V137.372H860.633V150.692H857.033V122.132H860.633V134.212H875.273V122.132H878.873V150.692ZM910.242 150.692H894.282V122.132H910.242V125.292H897.882V134.212H909.522V137.332H897.882V147.532H910.242V150.692ZM936.348 124.892C934.828 124.892 933.455 125.159 932.228 125.692C931.001 126.199 929.961 126.959 929.108 127.972C928.255 128.959 927.601 130.172 927.148 131.612C926.695 133.026 926.468 134.626 926.468 136.412C926.468 138.759 926.828 140.799 927.548 142.532C928.295 144.266 929.388 145.599 930.828 146.532C932.295 147.466 934.121 147.932 936.308 147.932C937.561 147.932 938.748 147.826 939.868 147.612C940.988 147.399 942.081 147.132 943.148 146.812V149.932C942.081 150.332 940.975 150.626 939.828 150.812C938.708 150.999 937.361 151.092 935.788 151.092C932.881 151.092 930.455 150.492 928.508 149.292C926.561 148.092 925.095 146.386 924.108 144.172C923.148 141.959 922.668 139.359 922.668 136.372C922.668 134.212 922.961 132.239 923.548 130.452C924.161 128.666 925.041 127.119 926.188 125.812C927.361 124.506 928.801 123.506 930.508 122.812C932.215 122.092 934.175 121.732 936.388 121.732C937.855 121.732 939.268 121.879 940.628 122.172C941.988 122.466 943.201 122.879 944.268 123.412L942.828 126.452C941.948 126.052 940.961 125.692 939.868 125.372C938.801 125.052 937.628 124.892 936.348 124.892ZM974.902 150.692L971.462 141.852H960.142L956.742 150.692H953.102L964.262 122.012H967.502L978.622 150.692H974.902ZM967.182 130.012C967.102 129.799 966.968 129.412 966.782 128.852C966.595 128.292 966.408 127.719 966.222 127.132C966.062 126.519 965.928 126.052 965.822 125.732C965.688 126.266 965.542 126.812 965.382 127.372C965.248 127.906 965.102 128.399 964.942 128.852C964.808 129.306 964.688 129.692 964.582 130.012L961.342 138.652H970.382L967.182 130.012Z" fill="#FAFAFA"/>
<path fill-rule="evenodd" clip-rule="evenodd" d="M989 175.692H278V240.692H989V175.692ZM464.061 198.145C463.555 198.336 463.391 198.65 463.568 199.088L464.204 200.605C464.396 201.057 464.792 201.166 465.394 200.934C466.077 200.674 466.829 200.264 467.649 199.703C468.47 199.143 469.092 198.596 469.516 198.062H469.557C469.529 198.473 469.516 198.883 469.516 199.293V221.77C469.516 222.385 469.823 222.692 470.438 222.692H472.202C472.817 222.692 473.125 222.385 473.125 221.77V194.084C473.125 193.469 472.811 193.161 472.182 193.161H470.438C470.069 193.161 469.687 193.407 469.29 193.899C468.743 194.583 467.998 195.362 467.055 196.237C466.111 197.112 465.113 197.748 464.061 198.145ZM495.07 197.692C496.297 197.159 497.67 196.892 499.19 196.892C500.47 196.892 501.644 197.052 502.71 197.372C503.804 197.692 504.79 198.052 505.67 198.452L507.11 195.412C506.044 194.879 504.83 194.466 503.47 194.172C502.11 193.879 500.697 193.732 499.23 193.732C497.017 193.732 495.057 194.092 493.35 194.812C491.644 195.506 490.204 196.506 489.03 197.812C487.884 199.119 487.004 200.666 486.39 202.452C485.804 204.239 485.51 206.212 485.51 208.372C485.51 211.359 485.99 213.959 486.95 216.172C487.937 218.386 489.404 220.092 491.35 221.292C493.297 222.492 495.724 223.092 498.63 223.092C500.204 223.092 501.55 222.999 502.67 222.812C503.817 222.626 504.924 222.332 505.99 221.932V218.812C504.924 219.132 503.83 219.399 502.71 219.612C501.59 219.826 500.404 219.932 499.15 219.932C496.964 219.932 495.137 219.466 493.67 218.532C492.23 217.599 491.137 216.266 490.39 214.532C489.67 212.799 489.31 210.759 489.31 208.412C489.31 206.626 489.537 205.026 489.99 203.612C490.444 202.172 491.097 200.959 491.95 199.972C492.804 198.959 493.844 198.199 495.07 197.692ZM517.824 222.492C518.091 222.732 518.397 222.852 518.744 222.852C519.091 222.852 519.384 222.732 519.624 222.492C519.891 222.226 520.024 221.919 520.024 221.572C520.024 221.226 519.891 220.932 519.624 220.692C519.384 220.426 519.091 220.292 518.744 220.292C518.397 220.292 518.091 220.412 517.824 220.652C517.584 220.892 517.464 221.199 517.464 221.572C517.464 221.919 517.584 222.226 517.824 222.492ZM517.464 205.212C517.464 205.559 517.584 205.866 517.824 206.132C518.091 206.372 518.397 206.492 518.744 206.492C519.091 206.492 519.384 206.372 519.624 206.132C519.891 205.866 520.024 205.559 520.024 205.212C520.024 204.866 519.891 204.572 519.624 204.332C519.384 204.066 519.091 203.932 518.744 203.932C518.397 203.932 518.091 204.066 517.824 204.332C517.584 204.572 517.464 204.866 517.464 205.212ZM549.737 197.252V193.732H546.177V197.252C543.884 197.279 541.95 197.586 540.377 198.172C538.804 198.759 537.537 199.546 536.577 200.532C535.644 201.492 534.964 202.612 534.537 203.892C534.137 205.146 533.937 206.479 533.937 207.892C533.937 209.119 534.124 210.359 534.497 211.612C534.87 212.866 535.51 214.026 536.417 215.092C537.324 216.132 538.564 216.986 540.137 217.652C541.737 218.292 543.75 218.639 546.177 218.692V223.092H549.737V218.692C552.11 218.639 554.084 218.292 555.657 217.652C557.23 217.012 558.484 216.186 559.417 215.172C560.35 214.132 561.004 212.986 561.377 211.732C561.777 210.452 561.977 209.172 561.977 207.892C561.977 205.946 561.604 204.186 560.857 202.612C560.11 201.012 558.844 199.732 557.057 198.772C555.27 197.812 552.83 197.306 549.737 197.252ZM541.057 201.332C542.337 200.692 544.044 200.346 546.177 200.292V215.732C544.177 215.652 542.537 215.292 541.257 214.652C540.004 214.012 539.07 213.119 538.457 211.972C537.87 210.799 537.577 209.426 537.577 207.852C537.577 206.359 537.844 205.066 538.377 203.972C538.91 202.852 539.804 201.972 541.057 201.332ZM554.697 214.612C553.444 215.279 551.79 215.652 549.737 215.732V200.292C551.897 200.346 553.604 200.692 554.857 201.332C556.11 201.946 557.004 202.812 557.537 203.932C558.07 205.026 558.337 206.332 558.337 207.852C558.337 209.372 558.044 210.719 557.457 211.892C556.897 213.039 555.977 213.946 554.697 214.612ZM589.445 196.332C587.739 194.866 585.019 194.132 581.285 194.132H573.725V222.692H577.325V211.572H580.605C582.739 211.572 584.539 211.332 586.005 210.852C587.472 210.346 588.645 209.666 589.525 208.812C590.405 207.959 591.032 206.999 591.405 205.932C591.805 204.839 592.005 203.706 592.005 202.532C592.005 199.866 591.152 197.799 589.445 196.332ZM577.325 197.212H580.965C583.499 197.212 585.352 197.666 586.525 198.572C587.699 199.479 588.285 200.852 588.285 202.692C588.285 204.079 587.992 205.199 587.405 206.052C586.819 206.906 585.925 207.532 584.725 207.932C583.525 208.306 582.019 208.492 580.205 208.492H577.325V197.212ZM616.232 213.852L619.672 222.692H623.392L612.272 194.012H609.032L597.872 222.692H601.512L604.912 213.852H616.232ZM611.552 200.852C611.739 201.412 611.872 201.799 611.952 202.012L615.152 210.652H606.112L609.352 202.012C609.459 201.692 609.579 201.306 609.712 200.852C609.872 200.399 610.019 199.906 610.152 199.372C610.312 198.812 610.459 198.266 610.592 197.732C610.699 198.052 610.832 198.519 610.992 199.132C611.179 199.719 611.365 200.292 611.552 200.852ZM651.339 222.692H654.939V194.132H651.339V206.212H636.699V194.132H633.099V222.692H636.699V209.372H651.339V222.692ZM685.107 222.692H688.707V194.132H685.107V207.972C683.534 208.479 682.121 208.879 680.867 209.172C679.614 209.466 678.201 209.612 676.627 209.612C674.814 209.612 673.494 209.239 672.667 208.492C671.867 207.719 671.467 206.559 671.467 205.012V194.132H667.867V205.532C667.867 207.879 668.601 209.679 670.067 210.932C671.534 212.159 673.601 212.772 676.267 212.772C677.921 212.772 679.414 212.612 680.747 212.292C682.107 211.946 683.561 211.506 685.107 210.972V222.692ZM716.757 213.852L720.197 222.692H723.917L712.797 194.012H709.557L698.397 222.692H702.037L705.437 213.852H716.757ZM712.077 200.852C712.264 201.412 712.397 201.799 712.477 202.012L715.677 210.652H706.637L709.877 202.012C709.984 201.692 710.104 201.306 710.237 200.852C710.397 200.399 710.544 199.906 710.677 199.372C710.837 198.812 710.984 198.266 711.117 197.732C711.224 198.052 711.357 198.519 711.517 199.132C711.704 199.719 711.89 200.292 712.077 200.852ZM752.104 188.612C752.664 187.706 752.997 186.586 753.104 185.252H749.784C749.651 186.639 749.224 187.599 748.504 188.132C747.811 188.639 746.851 188.892 745.624 188.892C744.237 188.892 743.224 188.652 742.584 188.172C741.971 187.666 741.597 186.692 741.464 185.252H738.184C738.291 186.612 738.584 187.746 739.064 188.652C739.544 189.532 740.304 190.199 741.344 190.652C742.411 191.106 743.811 191.332 745.544 191.332C747.251 191.332 748.637 191.106 749.704 190.652C750.771 190.199 751.571 189.519 752.104 188.612ZM737.024 194.132H733.664V222.692H737.664L753.424 198.932H753.584C753.557 199.226 753.531 199.679 753.504 200.292C753.477 200.906 753.437 201.612 753.384 202.412C753.357 203.186 753.331 203.999 753.304 204.852C753.277 205.679 753.264 206.452 753.264 207.172V222.692H756.624V194.132H752.624L736.904 217.772H736.744C736.771 217.452 736.797 216.999 736.824 216.412C736.877 215.799 736.917 215.106 736.944 214.332C736.971 213.559 736.984 212.786 736.984 212.012C737.011 211.212 737.024 210.479 737.024 209.812V194.132ZM785.167 205.452C786.394 204.306 787.007 202.759 787.007 200.812C787.007 199.426 786.647 198.212 785.927 197.172C785.207 196.106 784.14 195.266 782.727 194.652C781.34 194.039 779.62 193.732 777.567 193.732C776.207 193.732 774.927 193.866 773.727 194.132C772.527 194.399 771.434 194.759 770.447 195.212C769.487 195.639 768.634 196.132 767.887 196.692L769.607 199.132C770.727 198.412 771.874 197.826 773.047 197.372C774.247 196.919 775.74 196.692 777.527 196.692C779.234 196.692 780.62 197.079 781.687 197.852C782.754 198.626 783.287 199.732 783.287 201.172C783.287 202.239 782.967 203.172 782.327 203.972C781.714 204.746 780.78 205.346 779.527 205.772C778.3 206.199 776.74 206.412 774.847 206.412H770.967V209.412H775.047C777.82 209.412 779.98 209.826 781.527 210.652C783.074 211.479 783.847 212.799 783.847 214.612C783.847 216.372 783.18 217.732 781.847 218.692C780.54 219.652 778.607 220.132 776.047 220.132C775.167 220.132 774.247 220.066 773.287 219.932C772.327 219.772 771.367 219.559 770.407 219.292C769.474 218.999 768.594 218.652 767.767 218.252V221.532C768.967 222.119 770.26 222.519 771.647 222.732C773.06 222.972 774.54 223.092 776.087 223.092C778.647 223.092 780.78 222.732 782.487 222.012C784.194 221.292 785.474 220.306 786.327 219.052C787.18 217.772 787.607 216.292 787.607 214.612C787.607 212.719 786.98 211.186 785.727 210.012C784.474 208.839 782.647 208.092 780.247 207.772V207.612C782.3 207.292 783.94 206.572 785.167 205.452ZM802.843 194.132H799.483V222.692H803.483L819.243 198.932H819.403C819.376 199.226 819.349 199.679 819.323 200.292C819.296 200.906 819.256 201.612 819.203 202.412C819.176 203.186 819.149 203.999 819.123 204.852C819.096 205.679 819.083 206.452 819.083 207.172V222.692H822.443V194.132H818.443L802.723 217.772H802.563C802.589 217.452 802.616 216.999 802.643 216.412C802.696 215.799 802.736 215.106 802.763 214.332C802.789 213.559 802.803 212.786 802.803 212.012C802.829 211.212 802.843 210.479 802.843 209.812V194.132Z" fill="#FAFAFA"/>
<defs>
<clipPath id="clip0_1704_2361">
<rect width="256.731" height="229.337" fill="white" transform="translate(0 11.6924)"/>
</clipPath>
</defs>
</svg>
